<svg width="163" height="77" viewBox="0 0 163 77" fill="none" xmlns="http://www.w3.org/2000/svg">
<g clip-path="url(#clip0_662_237)">
<path d="M113.77 30.7628C110.42 39.4772 115.666 35.2262 132.695 25.3403C148.188 16.3471 158.007 9.60481 162.834 0.476074C163.512 15.3956 155.649 23.7442 127.698 40.9479C110.862 51.3095 104.903 53.5066 106.642 47.084C107.632 43.429 108.483 40.93 109.287 38.6664C109.243 38.7943 109.335 38.5308 109.292 38.6638C111.573 34.5355 112.433 33.2618 113.77 30.7654" fill="#50B848"/>
<path d="M113.77 30.7628C110.42 39.4772 115.666 35.2262 132.695 25.3403C148.188 16.3471 158.007 9.60481 162.834 0.476074C163.512 15.3956 155.649 23.7443 127.698 40.9479C110.862 51.3095 104.903 53.5066 106.642 47.084C107.632 43.429 108.483 40.93 109.287 38.6664C109.243 38.7943 109.335 38.5308 109.292 38.6638C111.573 34.5356 112.433 33.2618 113.77 30.7654" stroke="#50B848" stroke-width="0.929691" stroke-miterlimit="10"/>
<path d="M100.714 19.3673C103.545 18.4465 107.326 17.5743 111.034 16.7507C121.44 14.4334 117.864 22.4597 113.707 30.9515C112.418 33.5809 111.567 34.5452 109.285 38.6735C110.907 33.6091 112.84 30.752 109.057 31.3684C105.164 32.0028 100.952 33.2305 97.5703 34.2843L100.716 19.3699L100.714 19.3673Z" fill="#F47920"/>
<path d="M29.3633 57.3559L33.0849 39.6816H37.8526L45.2164 49.2401H45.3418L47.3675 39.6816H52.6391L48.9124 57.3559H43.9478L36.6785 48.0712H36.5993L34.6323 57.3559H29.3633Z" fill="white"/>
<path d="M52.1641 57.3559L55.8703 39.6816H65.1985C70.9817 39.6816 73.982 43.2932 72.7824 48.9817C71.4216 55.4402 66.7281 57.3559 60.3081 57.3559H52.1641ZM61.1086 43.6437L59.0496 53.3965H60.0088C64.068 53.3223 65.8201 52.2046 66.5772 48.6006C67.3675 44.833 65.6871 43.6437 62.0499 43.6437H61.1086Z" fill="white"/>
<path d="M70.0977 57.3559L81.93 39.6816H88.4574L91.6521 57.3457L84.9379 57.3559L83.3905 46.5851L83.3291 46.5646L76.6481 57.3559H70.0977Z" fill="white"/>
<path d="M92.6406 57.3559L96.3724 39.6816H102.432L99.5339 53.3965H106.652L105.816 57.3559H92.6406Z" fill="white"/>
<path d="M20.0625 57.3559L23.7943 39.6816H29.8486L26.1193 57.3559H20.0625Z" fill="white"/>
<path d="M1.37986 55.9078C10.1531 57.7954 10.7976 52.9638 11.3603 50.6285C11.9256 48.2779 14.6548 35.3022 14.6548 35.3022H21.4815C21.4815 35.3022 19.668 43.8836 18.0259 51.6644C16.8314 57.0946 12.7032 61.164 5.35977 60.6371C3.20867 60.4836 1.41822 59.7496 0.556249 59.1076C0.556249 59.1076 0.065154 58.7597 -0.00390625 58.7034L0.863183 55.785C0.929685 55.8055 1.24941 55.8771 1.37986 55.9052" fill="white"/>
<path d="M85.3974 59.9764C87.1564 59.9764 88.5336 60.4127 89.529 61.2854C90.5243 62.1444 91.1038 63.3239 91.2675 64.8238H89.304C89.1131 63.8693 88.6563 63.1125 87.9336 62.5535C87.2109 61.9808 86.2564 61.6945 85.0702 61.6945C84.1429 61.6945 83.2635 61.9263 82.4317 62.3899C81.5999 62.8398 80.8977 63.4943 80.325 64.3534C79.7523 65.1988 79.3637 66.1942 79.1592 67.3395C79.0774 67.8031 79.0365 68.2463 79.0365 68.669C79.0365 69.9916 79.4046 71.0347 80.1409 71.7983C80.8909 72.5619 81.8726 72.9437 83.0862 72.9437C84.2861 72.9437 85.3429 72.6642 86.2564 72.1051C87.1837 71.5324 87.9063 70.7689 88.4245 69.8144H90.388C89.6926 71.3143 88.6972 72.5006 87.4018 73.3732C86.1065 74.2323 84.5793 74.6618 82.8203 74.6618C81.6477 74.6618 80.6318 74.4232 79.7728 73.9459C78.9137 73.4687 78.2524 72.8005 77.7888 71.9415C77.3252 71.0825 77.0934 70.0803 77.0934 68.9349C77.0934 68.3895 77.1411 67.8577 77.2366 67.3395C77.482 65.9078 77.9933 64.6329 78.7706 63.5148C79.5478 62.3967 80.5091 61.5308 81.6545 60.9172C82.7999 60.29 84.0475 59.9764 85.3974 59.9764ZM96.1905 61.6331L95.3314 66.5623H100.813L100.547 67.994H95.0655L94.186 73.0255H100.281L100.015 74.5391H92.0589L94.5951 60.1196H102.551L102.286 61.6331H96.1905ZM119.361 60.365L116.866 74.5391H115.005L116.968 63.2898L110.484 74.5391H108.828L106.271 63.2898L104.308 74.5391H102.426L104.901 60.365H107.15L110.096 72.2483L117.132 60.365H119.361ZM123.954 61.6331L123.095 66.5623H128.576L128.311 67.994H122.829L121.95 73.0255H128.045L127.779 74.5391H119.823L122.359 60.1196H130.315L130.049 61.6331H123.954ZM141.377 74.5391H139.516L134.035 63.1466L132.03 74.5391H130.169L132.705 60.1196H134.566L140.048 71.5324L142.052 60.1196H143.914L141.377 74.5391ZM155.742 60.1196L155.476 61.6331H151.406L149.136 74.5391H147.275L149.545 61.6331H145.495L145.741 60.1196H155.742Z" fill="white"/>
</g>
<defs>
<clipPath id="clip0_662_237">
<rect width="163" height="76.7873" fill="white"/>
</clipPath>
</defs>
</svg>
