<svg width="217" height="103" viewBox="0 0 217 103" fill="none" xmlns="http://www.w3.org/2000/svg">
<g clip-path="url(#clip0_662_363)">
<path d="M151.463 40.9532C147.002 52.5545 153.986 46.8952 176.657 33.7343C197.282 21.7618 210.355 12.7858 216.78 0.632812C217.682 20.4951 207.215 31.6095 170.004 54.5125C147.591 68.3068 139.657 71.2318 141.972 62.6815C143.29 57.8155 144.424 54.4887 145.493 51.4751C145.435 51.6454 145.558 51.2946 145.5 51.4717C148.538 45.9758 149.682 44.28 151.463 40.9566" fill="#50B848"/>
<path d="M151.463 40.9532C147.002 52.5545 153.986 46.8952 176.657 33.7343C197.282 21.7618 210.355 12.7858 216.78 0.632812C217.682 20.4951 207.215 31.6095 170.004 54.5125C147.591 68.3068 139.657 71.2318 141.972 62.6815C143.29 57.8155 144.424 54.4887 145.493 51.4751C145.435 51.6454 145.558 51.2946 145.5 51.4717C148.538 45.9758 149.682 44.28 151.463 40.9566" stroke="#50B848" stroke-width="1.23769" stroke-miterlimit="10"/>
<path d="M134.079 25.7837C137.849 24.5579 142.882 23.3967 147.819 22.3002C161.671 19.2152 156.911 29.9005 151.378 41.2056C149.661 44.7061 148.528 45.9899 145.49 51.4858C147.649 44.7436 150.223 40.94 145.187 41.7607C140.004 42.6052 134.396 44.2396 129.895 45.6425L134.083 25.7871L134.079 25.7837Z" fill="#F47920"/>
<path d="M39.0898 76.3577L44.0443 52.8281H50.3915L60.195 65.5532H60.3618L63.0587 52.8281H70.0767L65.1154 76.3577H58.506L48.8286 63.997H48.723L46.1045 76.3577H39.0898Z" fill="#636466"/>
<path d="M69.4453 76.3577L74.3794 52.8281H86.798C94.497 52.8281 98.4912 57.6362 96.8942 65.2093C95.0827 73.8073 88.8342 76.3577 80.2873 76.3577H69.4453ZM81.3531 58.1027L78.612 71.0865H79.8889C85.2929 70.9878 87.6254 69.4997 88.6333 64.7019C89.6855 59.6861 87.4483 58.1027 82.6062 58.1027H81.3531Z" fill="#636466"/>
<path d="M93.3203 76.3577L109.073 52.8281H117.762L122.016 76.3441L113.077 76.3577L111.017 62.0186L110.935 61.9914L102.041 76.3577H93.3203Z" fill="#636466"/>
<path d="M123.332 76.3577L128.3 52.8281H136.367L132.509 71.0865H141.985L140.872 76.3577H123.332Z" fill="#636466"/>
<path d="M26.707 76.3577L31.6751 52.8281H39.7351L34.7704 76.3577H26.707Z" fill="#636466"/>
<path d="M1.83828 74.4299C13.5179 76.9429 14.376 70.5106 15.1252 67.4017C15.8777 64.2724 19.511 46.998 19.511 46.998H28.5994C28.5994 46.998 26.1851 58.4223 23.999 68.7808C22.4088 76.0099 16.9129 81.4275 7.13669 80.7261C4.27296 80.5218 1.88936 79.5445 0.741822 78.6898C0.741822 78.6898 0.0880328 78.2267 -0.00390625 78.1518L1.15044 74.2665C1.23897 74.2937 1.66462 74.3891 1.83828 74.4265" fill="#636466"/>
<path d="M113.687 79.9322C116.029 79.9322 117.862 80.5131 119.187 81.6749C120.512 82.8185 121.284 84.3887 121.502 86.3855H118.888C118.634 85.1148 118.025 84.1073 117.063 83.3631C116.101 82.6007 114.831 82.2195 113.251 82.2195C112.017 82.2195 110.846 82.5281 109.739 83.1452C108.631 83.7443 107.697 84.6156 106.934 85.7592C106.172 86.8847 105.654 88.2099 105.382 89.7347C105.273 90.3519 105.219 90.9418 105.219 91.5046C105.219 93.2654 105.709 94.6541 106.689 95.6706C107.687 96.6872 108.994 97.1955 110.61 97.1955C112.207 97.1955 113.614 96.8233 114.831 96.0791C116.065 95.3167 117.027 94.3001 117.717 93.0294H120.331C119.405 95.0262 118.08 96.6055 116.355 97.7673C114.631 98.9109 112.598 99.4827 110.256 99.4827C108.695 99.4827 107.343 99.165 106.199 98.5297C105.055 97.8943 104.175 97.0049 103.558 95.8612C102.941 94.7176 102.632 93.3834 102.632 91.8586C102.632 91.1325 102.695 90.4245 102.823 89.7347C103.149 87.8287 103.83 86.1314 104.865 84.6428C105.899 83.1543 107.179 82.0016 108.704 81.1848C110.229 80.3497 111.89 79.9322 113.687 79.9322ZM128.056 82.1378L126.912 88.7H134.209L133.855 90.606H126.558L125.387 97.3044H133.501L133.147 99.3193H122.555L125.932 80.1228H136.524L136.17 82.1378H128.056ZM158.902 80.4496L155.58 99.3193H153.103L155.717 84.3433L147.085 99.3193H144.879L141.476 84.3433L138.862 99.3193H136.357L139.651 80.4496H142.647L146.568 96.2697L155.934 80.4496H158.902ZM165.017 82.1378L163.873 88.7H171.171L170.817 90.606H163.519L162.349 97.3044H170.463L170.109 99.3193H159.517L162.893 80.1228H173.485L173.131 82.1378H165.017ZM188.212 99.3193H185.734L178.437 84.1527L175.769 99.3193H173.291L176.667 80.1228H179.145L186.442 95.3167L189.111 80.1228H191.589L188.212 99.3193ZM207.336 80.1228L206.982 82.1378H201.564L198.541 99.3193H196.063L199.086 82.1378H193.695L194.021 80.1228H207.336Z" fill="#231F20"/>
</g>
<defs>
<clipPath id="clip0_662_363">
<rect width="217" height="102.226" fill="white"/>
</clipPath>
</defs>
</svg>
