<svg width="236" height="87" viewBox="0 0 236 87" fill="none" xmlns="http://www.w3.org/2000/svg">
<g clip-path="url(#clip0_362_439)">
<path d="M164.846 43.7589C159.99 56.3505 167.597 50.213 192.273 35.9239C214.718 22.9296 228.95 13.1862 235.941 0C236.922 21.5582 225.536 33.6224 185.031 58.4795C160.634 73.4494 151.999 76.6237 154.518 67.3406C155.951 62.0565 157.182 58.4507 158.345 55.1806C158.288 55.3628 158.413 54.9792 158.355 55.1806C161.663 49.2156 162.904 47.3743 164.846 43.7685" fill="#50B848"/>
<path d="M145.931 27.3025C150.038 25.9695 155.51 24.7132 160.885 23.5241C175.964 20.1772 170.781 31.7714 164.761 44.037C162.895 47.8346 161.664 49.2251 158.356 55.1901C160.702 47.873 163.511 43.7493 158.029 44.6316C152.384 45.5522 146.287 47.3263 141.383 48.8415L145.941 27.2929L145.931 27.3025Z" fill="#F47920"/>
<path d="M42.543 82.186L47.9379 56.6479H54.8425L65.5073 70.4575H65.69L68.6327 56.6479H76.2682L70.8637 82.186H63.6705L53.1404 68.7696H53.025L50.1785 82.186H42.543Z" fill="#636466"/>
<path d="M88.5509 62.3731L85.5697 76.4608H86.9641C92.8495 76.3553 95.3882 74.7442 96.4845 69.5272C97.6289 64.0802 95.1959 62.3636 89.926 62.3636H88.5605L88.5509 62.3731ZM75.5877 82.186L80.9538 56.6479H94.4651C102.841 56.6479 107.188 61.8649 105.457 70.0835C103.485 79.4145 96.6865 82.186 87.3776 82.186H75.5781H75.5877Z" fill="#636466"/>
<path d="M101.57 82.186L118.717 56.6479H128.17L132.795 82.1764L123.073 82.186L120.832 66.6215L120.746 66.5927L111.062 82.186H101.57Z" fill="#636466"/>
<path d="M134.238 82.186L139.643 56.6479H148.423L144.23 76.4704H154.539L153.327 82.186H134.238Z" fill="#636466"/>
<path d="M29.0703 82.186L34.4748 56.6479H43.2451L37.8406 82.186H29.0703Z" fill="#636466"/>
<path d="M2.00205 80.0953C14.7151 82.8189 15.6479 75.8374 16.4654 72.4713C17.2828 69.0765 21.2352 50.3281 21.2352 50.3281H31.1306C31.1306 50.3281 28.5053 62.7279 26.1204 73.9673C24.3894 81.8119 18.4079 87.6906 7.76237 86.933C4.6466 86.7124 2.05013 85.6479 0.799978 84.7273C0.799978 84.7273 0.0883531 84.219 -0.0078125 84.1423L1.24234 79.9227C1.33851 79.9515 1.8001 80.057 1.99243 80.0953" fill="#636466"/>
</g>
<defs>
<clipPath id="clip0_362_439">
<rect width="236" height="87" fill="white"/>
</clipPath>
</defs>
</svg>
