<svg width="163" height="60" viewBox="0 0 163 60" fill="none" xmlns="http://www.w3.org/2000/svg">
<g clip-path="url(#clip0_362_278)">
<path d="M113.853 30.1786C110.499 38.8624 115.753 34.6296 132.796 24.7751C148.299 15.8135 158.129 9.09392 162.957 0C163.635 14.8677 155.771 23.1878 127.795 40.3307C110.944 50.6548 104.98 52.8439 106.72 46.4418C107.71 42.7976 108.56 40.3108 109.364 38.0556C109.324 38.1812 109.41 37.9167 109.37 38.0556C111.655 33.9418 112.512 32.672 113.853 30.1852" fill="#50B848"/>
<path d="M100.79 18.829C103.626 17.9097 107.405 17.0433 111.118 16.2232C121.533 13.915 117.953 21.911 113.795 30.37C112.506 32.989 111.656 33.948 109.371 38.0618C110.992 33.0155 112.932 30.1716 109.146 30.7801C105.247 31.415 101.036 32.6385 97.6484 33.6835L100.797 18.8224L100.79 18.829Z" fill="#F47920"/>
<path d="M29.3828 56.6798L33.1089 39.0674H37.8779L45.2438 48.5912H45.37L47.4024 39.0674H52.6761L48.9433 56.6798H43.9752L36.7022 47.4272H36.6225L34.6565 56.6798H29.3828Z" fill="white"/>
<path d="M61.1592 43.0158L59.1002 52.7314H60.0633C64.1282 52.6587 65.8816 51.5475 66.6388 47.9497C67.4292 44.193 65.7488 43.0092 62.109 43.0092H61.1658L61.1592 43.0158ZM52.2059 56.6798L55.9121 39.0674H65.244C71.0291 39.0674 74.0313 42.6653 72.8357 48.3333C71.4742 54.7684 66.7783 56.6798 60.3489 56.6798H52.1992H52.2059Z" fill="white"/>
<path d="M70.1523 56.6798L81.9949 39.0674H88.524L91.7187 56.6732L85.0037 56.6798L83.4562 45.9457L83.3964 45.9259L76.7079 56.6798H70.1523Z" fill="white"/>
<path d="M92.7148 56.6798L96.4476 39.0674H102.512L99.6158 52.738H106.736L105.899 56.6798H92.7148Z" fill="white"/>
<path d="M20.0781 56.6798L23.8109 39.0674H29.8684L26.1356 56.6798H20.0781Z" fill="white"/>
<path d="M1.38035 55.2381C10.161 57.1164 10.8053 52.3016 11.3698 49.9801C11.9344 47.6389 14.6642 34.709 14.6642 34.709H21.4988C21.4988 34.709 19.6856 43.2606 18.0384 51.0119C16.8428 56.4219 12.7115 60.4762 5.35888 59.9537C3.20689 59.8016 1.41356 59.0675 0.550111 58.4325C0.550111 58.4325 0.058607 58.082 -0.0078125 58.0291L0.85564 55.119C0.92206 55.1389 1.24087 55.2116 1.37371 55.2381" fill="white"/>
</g>
<defs>
<clipPath id="clip0_362_278">
<rect width="163" height="60" fill="white"/>
</clipPath>
</defs>
</svg>
