<svg width="64" height="68" viewBox="0 0 64 68" fill="none" xmlns="http://www.w3.org/2000/svg">
<path d="M52.5484 31.5372C52.0693 30.8422 51.4304 30.0603 50.4721 30.0603C49.5137 30.0603 48.8748 30.8422 48.3957 31.5372C48.1561 31.7979 47.8367 32.2323 47.7568 32.3191C47.5971 32.3191 47.038 32.1454 46.7985 32.0585C45.9999 31.7979 45.2012 31.4503 44.4026 31.8847C43.604 32.406 43.4443 33.4486 43.2846 34.2305C43.2047 34.578 43.1249 35.1862 43.045 35.273C42.8853 35.3599 42.4061 35.5337 42.0867 35.5337C41.2881 35.7074 40.3297 35.8812 39.9304 36.75C39.4513 37.6188 39.7707 38.5745 40.0901 39.3564C40.17 39.7039 40.4096 40.2252 40.3297 40.3989C40.2499 40.5727 39.8506 40.9202 39.611 41.1808C38.9721 41.7021 38.2533 42.3972 38.2533 43.4397C38.2533 44.4823 38.9721 45.0904 39.611 45.6986C39.8506 45.9592 40.2499 46.3067 40.3297 46.4805C40.3297 46.6542 40.17 47.2624 40.0901 47.523C39.8506 48.3918 39.5311 49.2606 39.9304 50.1294C40.4096 50.9982 41.3679 51.172 42.0867 51.3457C42.2464 51.3457 42.5658 51.4326 42.7256 51.5195L37.2152 61.945C37.0554 62.2925 37.0554 62.7269 37.295 63.0745C37.5346 63.422 37.9339 63.5089 38.2533 63.422L42.7256 61.8668L43.7637 66.819C43.8436 67.1665 44.1631 67.514 44.4825 67.6009H44.6422C44.9617 67.6009 45.2811 67.4271 45.4408 67.0796L50.4721 57.1753L55.663 66.9927C55.8227 67.2534 56.1422 67.514 56.4616 67.514H56.6213C57.0207 67.4271 57.2602 67.1665 57.3401 66.7321L58.3783 61.78L62.8505 63.3438C63.1699 63.4307 63.5692 63.3438 63.8088 62.9963C64.0484 62.6487 64.0484 62.2143 63.8887 61.8668L58.3783 51.4413C58.6179 51.3544 58.8575 51.3544 59.0172 51.2675C59.8158 51.0938 60.7741 50.92 61.1734 50.0512C61.6526 49.1824 61.3331 48.2268 61.0137 47.4448C60.9338 47.0973 60.6942 46.5761 60.7741 46.4023C60.854 46.2285 61.2533 45.881 61.4929 45.6204C62.1317 45.0991 62.8505 44.4041 62.8505 43.3615C62.8505 42.319 62.1317 41.6239 61.4929 41.1027C61.2533 40.842 60.854 40.4945 60.7741 40.3207C60.7741 40.147 60.9338 39.6257 61.0137 39.2782C61.2533 38.4094 61.5727 37.4537 61.1734 36.6718C60.6942 35.803 59.7359 35.6292 59.0172 35.4555C58.6977 35.3686 58.1387 35.2817 58.0588 35.1949C57.979 35.0211 57.8193 34.4998 57.8193 34.1523C57.6595 33.2835 57.4998 32.241 56.7012 31.8066C55.9026 31.2853 55.0241 31.6328 54.3054 31.9803C53.9859 32.0672 53.5068 32.3278 53.3471 32.241C53.0196 32.241 52.7002 31.7979 52.5405 31.5372H52.5484ZM44.8818 63.8564L44.1631 60.2943C44.0832 60.0337 43.9235 59.773 43.7637 59.6862C43.5242 59.5124 43.2846 59.5124 43.045 59.5993L39.8506 60.7287L43.5242 53.8652C43.6839 54.3865 43.9235 54.8209 44.4026 55.0816C45.2012 55.6028 46.0797 55.2553 46.7985 54.9078C47.1179 54.8209 47.5971 54.5603 47.7568 54.6472C47.9165 54.734 48.236 55.1684 48.4755 55.4291C48.6353 55.6897 48.8748 55.9503 49.1144 56.1241L44.8818 63.8564ZM61.0936 60.6418L57.8991 59.5124C57.6595 59.4255 57.42 59.4255 57.1804 59.5993C56.9408 59.773 56.7811 59.9468 56.7811 60.2074L56.0623 63.7695L51.9096 55.9503C52.1491 55.6897 52.3089 55.4291 52.5484 55.2553C52.788 54.9947 53.1075 54.5603 53.1873 54.4734C53.347 54.3865 53.9061 54.6472 54.1457 54.734C54.9443 54.9947 55.8227 55.3422 56.5415 54.9078C57.0207 54.6472 57.2602 54.2128 57.42 53.6915L61.0856 60.6418H61.0936ZM54.7845 33.7961C55.104 33.7092 55.5832 33.4486 55.663 33.4486C55.7429 33.6223 55.9026 34.1436 55.9026 34.4911C55.9825 35.1862 56.1422 36.055 56.6213 36.5762C57.1005 37.0975 57.8991 37.2713 58.538 37.3581C58.8575 37.445 59.4165 37.5319 59.4963 37.5319C59.4963 37.7057 59.3366 38.2269 59.2568 38.5745C59.0172 39.2695 58.7776 40.0514 58.9373 40.8333C59.097 41.5284 59.6561 42.0496 60.2151 42.5709C60.4547 42.8316 60.854 43.1791 60.9338 43.3528C60.854 43.5266 60.4547 43.8741 60.2151 44.1347C59.6561 44.6647 59.097 45.0991 58.9373 45.8723C58.7776 46.6456 59.0172 47.4362 59.2568 48.1312C59.3366 48.4787 59.5762 49 59.5762 49.0869C59.4165 49.1737 58.9373 49.3475 58.6179 49.3475C57.979 49.4344 57.1804 49.6081 56.7012 50.1294C56.222 50.6507 56.0623 51.5195 55.9825 52.2145C55.9026 52.562 55.8227 53.1702 55.8227 53.2571C55.663 53.2571 55.1838 53.0833 54.8644 52.9964C54.2255 52.7358 53.5068 52.4752 52.788 52.6489C52.1491 52.8227 51.67 53.4308 51.1908 54.039C50.9512 54.2996 50.6318 54.8209 50.4721 54.8209C50.3123 54.734 49.9929 54.2996 49.7533 54.039C49.2741 53.4308 48.8748 52.8227 48.1561 52.6489C47.9964 52.562 47.8367 52.562 47.6769 52.562C47.1179 52.562 46.6387 52.7358 46.1596 52.9964C45.8401 53.0833 45.361 53.344 45.2811 53.344C45.2012 53.1702 45.0415 52.6489 45.0415 52.3014C44.9617 51.6064 44.8019 50.7376 44.3228 50.2163C43.8436 49.695 43.045 49.5213 42.4061 49.4344C42.0867 49.3475 41.5276 49.2606 41.4478 49.2606C41.4478 49.0869 41.6075 48.5656 41.6874 48.2181C41.9269 47.523 42.1665 46.7411 42.0068 45.9592C41.8471 45.2642 41.2881 44.7429 40.729 44.2216C40.4895 43.961 40.0901 43.6135 40.0103 43.4397C40.0901 43.2659 40.4895 42.9184 40.729 42.6578C41.2881 42.1365 41.8471 41.7021 42.0068 40.9202C42.1665 40.1383 41.9269 39.3564 41.6874 38.6613C41.6075 38.3138 41.3679 37.7925 41.3679 37.7057C41.5276 37.6188 42.0068 37.445 42.3263 37.445C42.9651 37.3581 43.7637 37.1844 44.2429 36.6631C44.7221 36.1418 44.8818 35.273 44.9617 34.578C45.0415 34.2305 45.1214 33.6223 45.1214 33.5355C45.2811 33.5355 45.7603 33.7092 46.0797 33.7961C46.7186 34.0567 47.4373 34.3174 48.1561 34.1436C48.795 33.9698 49.2741 33.3617 49.7533 32.7535C49.9929 32.4929 50.3123 31.9716 50.4721 31.9716C50.6318 32.0585 50.9512 32.4929 51.1908 32.7535C51.67 33.3617 52.0693 33.9698 52.788 34.1436C53.4269 34.4042 54.1457 34.0567 54.7845 33.7961ZM0.878469 15.0301H10.302V51.172C10.302 51.6933 10.7014 52.1276 11.1805 52.1276H37.295C37.7742 52.1276 38.1735 51.6933 38.1735 51.172C38.1735 50.6507 37.7742 50.2163 37.287 50.2163H12.1388V6.60284C12.1388 4.77837 11.4201 3.12766 10.3819 1.91135H45.361C46.479 1.91135 47.5971 2.43262 48.3957 3.30142C49.1943 4.17021 49.6735 5.38652 49.6735 6.60284V14.1613V27.1933C49.6735 27.7145 50.0728 28.1489 50.5519 28.1489C51.0311 28.1489 51.4304 27.7145 51.4304 27.1933V6.60284V6.51596C51.4304 4.77837 50.7915 3.21454 49.6735 1.91135C48.4755 0.695035 46.9582 0 45.361 0H6.06942C2.71527 0 0 2.9539 0 6.60284V14.1613C0 14.5957 0.399304 15.0301 0.878469 15.0301ZM1.75694 6.60284C1.75694 3.99645 3.6736 1.91135 6.06942 1.91135C8.46525 1.91135 10.3021 3.99645 10.3819 6.51596V13.1188H1.75694V6.60284ZM18.1284 15.0301H43.5242C44.0033 15.0301 44.4026 14.5957 44.4026 14.0745C44.4026 13.5532 44.0033 13.1188 43.5242 13.1188H18.1284C17.6493 13.1188 17.2499 13.5532 17.2499 14.0832C17.2499 14.6044 17.6493 15.0388 18.1284 15.0388V15.0301ZM44.4026 22.328C44.4026 21.8067 44.0033 21.3723 43.5242 21.3723H18.1284C17.6493 21.3723 17.2499 21.8067 17.2499 22.3367C17.2499 22.858 17.6493 23.2924 18.1284 23.2924H43.5242C44.0033 23.2924 44.4026 22.858 44.4026 22.3367V22.328ZM34.5798 29.539H18.1284C17.6493 29.539 17.2499 29.9734 17.2499 30.4947C17.2499 31.0159 17.6493 31.4503 18.1284 31.4503H34.5798C35.0589 31.4503 35.4582 31.0159 35.4582 30.4947C35.4582 29.9734 35.0589 29.539 34.5798 29.539ZM34.5798 37.7057H18.1284C17.6493 37.7057 17.2499 38.1401 17.2499 38.6613C17.2499 39.1826 17.6493 39.617 18.1284 39.617H34.5798C35.0589 39.617 35.4582 39.1826 35.4582 38.6613C35.4582 38.1401 35.0589 37.7057 34.5798 37.7057ZM46.7186 42.2234C46.3992 41.8759 45.8401 41.8759 45.4408 42.2234C45.1214 42.5709 45.1214 43.1791 45.4408 43.6135L48.6353 47.0886C48.795 47.2624 49.0346 47.3493 49.2741 47.3493C49.5137 47.3493 49.7533 47.2624 49.913 47.0886L55.3436 41.1808C55.663 40.8333 55.663 40.2252 55.3436 39.7908C55.0241 39.3564 54.4651 39.4433 54.0658 39.7908L49.2741 45.0035L46.7186 42.2234Z" fill="#ACACAC"/>
</svg>
