<svg width="96" height="95" viewBox="0 0 96 95" fill="none" xmlns="http://www.w3.org/2000/svg">
<path d="M3 92.0312H93M16.72 36.575L81 7.67917M81 7.67917L76.24 20.3063M81 7.67917L68.28 2.96875M24 64.3229H12C11.2076 64.3332 10.4505 64.6492 9.89014 65.2038C9.32976 65.7583 9.01036 66.5075 9 67.2917V92.0312H27V67.2917C26.9896 66.5075 26.6702 65.7583 26.1099 65.2038C25.5495 64.6492 24.7924 64.3332 24 64.3229ZM54 48.4896H42C41.2076 48.4998 40.4505 48.8159 39.8901 49.3704C39.3298 49.925 39.0104 50.6742 39 51.4583V92.0312H57V51.4583C56.9896 50.6742 56.6702 49.925 56.1099 49.3704C55.5495 48.8159 54.7924 48.4998 54 48.4896ZM84 32.6562H72C71.2076 32.6665 70.4505 32.9826 69.8901 33.5371C69.3298 34.0917 69.0104 34.8408 69 35.625V92.0312H87V35.625C86.9896 34.8408 86.6702 34.0917 86.1099 33.5371C85.5495 32.9826 84.7924 32.6665 84 32.6562Z" stroke="#8FA35D" stroke-width="3" stroke-linecap="round" stroke-linejoin="round"/>
</svg>
