<svg width="89" height="88" viewBox="0 0 89 88" fill="none" xmlns="http://www.w3.org/2000/svg">
<path d="M50.5698 0.431085C51.1303 0.198956 51.7756 0.32731 52.2046 0.75628L69.7817 18.3364C70.2106 18.7653 70.3381 19.4107 70.106 19.9711C69.8738 20.5316 69.3269 20.8969 68.7202 20.8969H51.144C50.3156 20.8969 49.644 20.2253 49.644 19.3969V1.81683C49.644 1.2102 50.0094 0.663301 50.5698 0.431085ZM52.644 17.8969H65.1001L52.644 5.43792V17.8969Z" fill="#7C4548"/>
<path d="M0.421875 79.1616V8.84717C0.422045 4.13752 4.2425 0.317064 8.95215 0.316895H51.1396C51.9681 0.316895 52.6396 0.988467 52.6396 1.81689V17.897H68.7207C69.5489 17.897 70.2205 18.5688 70.2207 19.397V37.9624C70.2207 38.3602 70.0625 38.7417 69.7812 39.0229L47.9844 60.8198L45.2627 70.9771L55.4248 68.2544L67.6602 56.02C68.0892 55.5913 68.7345 55.4627 69.2949 55.6948C69.8554 55.927 70.2207 56.4749 70.2207 57.0815V79.1616C70.2206 83.8708 66.4047 87.6917 61.6904 87.6919H8.95215C4.24244 87.6917 0.421942 83.8714 0.421875 79.1616ZM3.42188 79.1616C3.42194 82.2145 5.89929 84.6917 8.95215 84.6919H61.6904C64.7467 84.6917 67.2206 82.215 67.2207 79.1616V60.7017L57.2617 70.6606C57.0756 70.8468 56.8441 70.9812 56.5898 71.0493L43.6289 74.521C43.4153 74.5946 43.1826 74.6216 42.9453 74.5903C42.199 74.4921 41.6416 73.8558 41.6416 73.103V73.0991C41.6416 72.9548 41.6624 72.8146 41.7012 72.6812L45.1914 59.6548L45.2549 59.4683C45.33 59.2872 45.4396 59.1215 45.5791 58.9819L67.2207 37.3403V20.897H51.1396C50.3114 20.8967 49.6396 20.2253 49.6396 19.397V3.31689H8.95215C5.89935 3.31706 3.42204 5.79437 3.42188 8.84717V79.1616Z" fill="#7C4548"/>
<path d="M35.3213 60.0688L35.4951 60.0786C35.6677 60.0987 35.836 60.1489 35.9922 60.2271H35.9932V60.228H35.9941L35.9961 60.229C35.9975 60.2297 35.9995 60.2312 36.001 60.2319C36.0039 60.2334 36.0067 60.2352 36.0098 60.2368C36.016 60.24 36.0232 60.2428 36.0303 60.2466C36.0445 60.2542 36.0616 60.2641 36.0801 60.2749C36.1138 60.2946 36.1678 60.3272 36.2295 60.3735C36.2828 60.4135 36.3942 60.5026 36.5059 60.6421C36.6008 60.7608 36.8379 61.0913 36.8379 61.5854C36.8378 62.0776 36.6063 62.4442 36.3926 62.6577C36.1788 62.8713 35.8125 63.1011 35.3213 63.1011H15.9834C15.809 63.1011 15.6359 63.0713 15.4727 63.0122L15.3125 62.9429H15.3115L15.3105 62.9419L15.3086 62.9409C15.3072 62.9402 15.3052 62.9397 15.3037 62.939C15.3008 62.9375 15.298 62.9357 15.2949 62.9341C15.2886 62.9308 15.2816 62.9272 15.2744 62.9233C15.2603 62.9158 15.2438 62.9066 15.2256 62.896C15.1918 62.8763 15.1373 62.843 15.0752 62.7964C15.0217 62.7563 14.9096 62.6674 14.7979 62.5278C14.7144 62.4234 14.5239 62.1577 14.4775 61.7622L14.4668 61.5854L14.4775 61.4067C14.5246 61.0043 14.7243 60.7001 14.9111 60.5132C15.1247 60.2997 15.4914 60.0688 15.9834 60.0688H35.3213Z" fill="#7C4548"/>
<path d="M42.3555 49.5229C42.5883 49.5229 42.8181 49.5771 43.0264 49.6812H43.0273V49.6821H43.0283L43.0303 49.6831C43.0317 49.6838 43.0337 49.6853 43.0352 49.686C43.0379 49.6874 43.041 49.6884 43.0439 49.6899C43.0502 49.6932 43.0574 49.6969 43.0645 49.7007C43.0787 49.7083 43.0958 49.7182 43.1143 49.729C43.148 49.7487 43.2019 49.7813 43.2637 49.8276C43.3171 49.8677 43.4293 49.9565 43.541 50.0962C43.6361 50.2151 43.8721 50.5456 43.8721 51.0396C43.872 51.5311 43.6412 51.8973 43.4277 52.1108C43.2142 52.3244 42.8476 52.5552 42.3555 52.5552H15.9873C15.7545 52.5552 15.5247 52.5011 15.3164 52.397L15.9873 51.0552L15.3154 52.397L15.2979 52.3882C15.2917 52.385 15.2853 52.3812 15.2783 52.3774C15.2641 52.3698 15.2469 52.3608 15.2285 52.3501C15.1948 52.3304 15.1411 52.2969 15.0791 52.2505C15.0257 52.2105 14.9135 52.1216 14.8018 51.9819C14.7185 51.8778 14.5278 51.612 14.4814 51.2163L14.4707 51.0396L14.4814 50.8608C14.5285 50.4582 14.7282 50.1541 14.915 49.9673C15.1287 49.7538 15.4956 49.5229 15.9873 49.5229H42.3555Z" fill="#7C4548"/>
<path d="M54.6592 38.9771C54.892 38.9771 55.1218 39.0311 55.3301 39.1353L55.3311 39.1362H55.332L55.334 39.1372C55.3354 39.1379 55.3374 39.1394 55.3389 39.1401C55.3416 39.1415 55.3447 39.1425 55.3477 39.144C55.3539 39.1473 55.361 39.151 55.3682 39.1548C55.3824 39.1624 55.3995 39.1723 55.418 39.1831C55.4517 39.2028 55.5057 39.2355 55.5674 39.2817C55.6208 39.3218 55.733 39.4106 55.8447 39.5503C55.9399 39.6693 56.1758 39.9999 56.1758 40.4937C56.1757 40.9852 55.9449 41.3514 55.7314 41.5649C55.5179 41.7785 55.1514 42.0093 54.6592 42.0093H15.9873C15.7545 42.0093 15.5247 41.9552 15.3164 41.8511L15.9873 40.5093L15.3154 41.8511L15.2979 41.8423C15.2917 41.8391 15.2853 41.8353 15.2783 41.8315C15.2641 41.8239 15.2469 41.8149 15.2285 41.8042C15.1948 41.7845 15.1411 41.751 15.0791 41.7046C15.0257 41.6646 14.9135 41.5757 14.8018 41.436C14.7185 41.3319 14.5278 41.0661 14.4814 40.6704L14.4707 40.4937L14.4814 40.3149C14.5285 39.9123 14.7282 39.6082 14.915 39.4214C15.1287 39.2079 15.4956 38.9771 15.9873 38.9771H54.6592Z" fill="#7C4548"/>
<path d="M54.6587 28.4272L54.8325 28.437C55.0051 28.4571 55.1734 28.5074 55.3296 28.5854L54.6587 29.9272L55.3306 28.5864H55.3325L55.3345 28.5884L55.3481 28.5952C55.3543 28.5984 55.3607 28.6022 55.3677 28.606C55.3819 28.6136 55.399 28.6225 55.4175 28.6333C55.4513 28.653 55.5049 28.6864 55.5669 28.7329C55.6203 28.773 55.7326 28.8609 55.8442 29.0005C55.9392 29.1193 56.1753 29.4499 56.1753 29.9438C56.1752 30.4353 55.9445 30.8015 55.731 31.0151C55.5173 31.2288 55.1505 31.4595 54.6587 31.4595H15.9868C15.8124 31.4595 15.6393 31.4297 15.4761 31.3706L15.3159 31.3013H15.3149L15.314 31.3003L15.312 31.2993C15.3106 31.2986 15.3086 31.2981 15.3071 31.2974C15.3042 31.2959 15.3014 31.2941 15.2983 31.2925C15.292 31.2892 15.285 31.2856 15.2778 31.2817C15.2636 31.2741 15.2465 31.2652 15.228 31.2544C15.1942 31.2347 15.1406 31.2012 15.0786 31.1548C15.0252 31.1147 14.913 31.0268 14.8013 30.8872C14.7181 30.7832 14.5274 30.5167 14.481 30.1206L14.4702 29.9438L14.481 29.7651C14.5281 29.3624 14.7278 29.0584 14.9146 28.8716C15.128 28.6581 15.4948 28.4272 15.9868 28.4272H54.6587Z" fill="#7C4548"/>
<path d="M70.8881 33.6773C71.474 33.0918 72.4238 33.0916 73.0095 33.6773L82.5727 43.2405C83.1581 43.8262 83.1581 44.7761 82.5727 45.3618L57.2667 70.6678C56.681 71.2535 55.7312 71.2534 55.1453 70.6678L45.5821 61.1046C44.9964 60.5188 44.9964 59.5691 45.5821 58.9833L70.8881 33.6773ZM56.206 67.4858L79.3907 44.3012L71.9488 36.8593L48.7641 60.0439L56.206 67.4858Z" fill="#7C4548"/>
<path d="M75.6631 28.8986C77.563 26.9986 80.6655 26.9987 82.5654 28.8986L87.3457 33.6798C89.2455 35.5798 89.2456 38.6813 87.3457 40.5812L82.5654 45.3625C82.2842 45.6436 81.9025 45.8009 81.5049 45.8009C81.1073 45.8009 80.7256 45.6435 80.4443 45.3625L70.8828 35.8009C70.6016 35.5197 70.4434 35.1381 70.4434 34.7404C70.4434 34.3426 70.6016 33.9611 70.8828 33.6798L75.6631 28.8986ZM80.4443 31.0197C79.716 30.2913 78.5126 30.2913 77.7842 31.0197L74.0635 34.7394L81.5039 42.1798L85.2246 38.4601C85.953 37.7318 85.9529 36.5293 85.2246 35.8009L80.4443 31.0197Z" fill="#7C4548"/>
<path d="M46.2517 58.5936C46.7694 58.4549 47.322 58.6033 47.701 58.9822L57.2625 68.5438C57.6412 68.9226 57.7888 69.4745 57.6502 69.992C57.5115 70.5096 57.1073 70.9139 56.5896 71.0525L43.5291 74.5516C43.0116 74.6901 42.4597 74.5426 42.0809 74.1639C41.7019 73.785 41.5535 73.2323 41.6922 72.7147L45.1912 59.6551C45.3299 59.1375 45.7343 58.7324 46.2517 58.5936ZM45.2625 70.9813L53.3035 68.827L47.4168 62.9402L45.2625 70.9813Z" fill="#7C4548"/>
</svg>
