<svg width="87" height="87" viewBox="0 0 87 87" fill="none" xmlns="http://www.w3.org/2000/svg">
<path d="M8.56812 76.8198V8.68018C8.56812 7.85175 9.23969 7.18018 10.0681 7.18018C10.8965 7.18018 11.5681 7.85175 11.5681 8.68018V76.8198C11.5681 77.6483 10.8965 78.3198 10.0681 78.3198C9.23969 78.3198 8.56812 77.6483 8.56812 76.8198Z" fill="#9C8C6F"/>
<path d="M50.4165 29.8936C51.2448 29.8937 51.9165 30.5652 51.9165 31.3936V52.7725C51.9164 53.6007 51.2447 54.2723 50.4165 54.2725H28.895C28.0667 54.2725 27.3951 53.6008 27.395 52.7725V31.3936C27.395 30.5651 28.0666 29.8936 28.895 29.8936H50.4165ZM30.395 51.2725H48.9165V32.8936H30.395V51.2725Z" fill="#9C8C6F"/>
<path d="M74.6245 11.1875L74.7778 11.1953C75.5342 11.2722 76.1245 11.9109 76.1245 12.6875V20.7061C76.1244 21.5343 75.4528 22.206 74.6245 22.2061H28.895C28.0667 22.2061 27.3951 21.5344 27.395 20.7061V12.6875C27.395 11.8591 28.0666 11.1875 28.895 11.1875H74.6245ZM30.395 19.2061H73.1245V14.1875H30.395V19.2061Z" fill="#9C8C6F"/>
<path d="M74.6281 29.8936C75.4565 29.8936 76.1281 30.5651 76.1281 31.3936C76.1281 32.222 75.4565 32.8935 74.6281 32.8936H61.1749C60.3465 32.8936 59.6749 32.222 59.6749 31.3936C59.6749 30.5651 60.3465 29.8936 61.1749 29.8936H74.6281Z" fill="#9C8C6F"/>
<path d="M74.6281 40.5845C75.4565 40.5845 76.1281 41.2561 76.1281 42.0845C76.1281 42.9129 75.4565 43.5844 74.6281 43.5845H61.1749C60.3465 43.5845 59.6749 42.9129 59.6749 42.0845C59.6749 41.256 60.3465 40.5845 61.1749 40.5845H74.6281Z" fill="#9C8C6F"/>
<path d="M74.6281 51.272C75.4565 51.272 76.1281 51.9436 76.1281 52.772C76.1281 53.6004 75.4565 54.2719 74.6281 54.272H61.1749C60.3465 54.272 59.6749 53.6004 59.6749 52.772C59.6749 51.9435 60.3465 51.272 61.1749 51.272H74.6281Z" fill="#9C8C6F"/>
<path d="M74.6284 61.9595C75.4567 61.9597 76.1284 62.6312 76.1284 63.4595C76.1284 64.2878 75.4567 64.9593 74.6284 64.9595H28.895C28.0666 64.9595 27.395 64.2879 27.395 63.4595C27.395 62.631 28.0666 61.9595 28.895 61.9595H74.6284Z" fill="#9C8C6F"/>
<path d="M74.6284 72.6509C75.4567 72.6511 76.1284 73.3226 76.1284 74.1509C76.1284 74.9792 75.4567 75.6507 74.6284 75.6509H28.895C28.0666 75.6509 27.395 74.9793 27.395 74.1509C27.395 73.3225 28.0666 72.6509 28.895 72.6509H74.6284Z" fill="#9C8C6F"/>
<path d="M16.6396 76.4854V2C16.6396 1.17168 17.3114 0.500177 18.1396 0.5H85.3906C86.219 0.50007 86.8906 1.17162 86.8906 2V76.8203C86.8904 82.0885 82.5928 86.3379 77.3184 86.3379H10.0684C10.0514 86.3379 10.0344 86.3355 10.0176 86.335C4.76689 86.3062 0.5 82.0693 0.5 76.8232V14.0254C0.500188 13.1971 1.17169 12.5254 2 12.5254C2.82831 12.5254 3.49981 13.1971 3.5 14.0254V76.8232C3.5 80.4765 6.54168 83.4456 10.2744 83.335C13.8086 83.229 16.6396 80.1365 16.6396 76.4854ZM19.6396 76.4854C19.6396 79.0809 18.6193 81.53 16.9258 83.3379H77.3184C80.9556 83.3379 83.8904 80.412 83.8906 76.8203V3.5H19.6396V76.4854Z" fill="#9C8C6F"/>
</svg>
