<svg width="106" height="32" viewBox="0 0 106 32" fill="none" xmlns="http://www.w3.org/2000/svg">
<path d="M16.4911 0C7.38359 0 0 7.16363 0 16.0001C0 24.837 7.38359 32 16.4911 32C25.5997 32 32.9825 24.837 32.9825 16.0001C32.9825 7.16423 25.5997 0.00080348 16.4909 0.00080348L16.4911 0ZM24.054 23.0768C23.9836 23.1886 23.8912 23.286 23.782 23.3632C23.6728 23.4403 23.549 23.4959 23.4177 23.5266C23.2863 23.5573 23.15 23.5626 23.0166 23.5421C22.8832 23.5217 22.7552 23.4759 22.64 23.4074C18.7681 21.1126 13.8937 20.593 8.15334 21.8655C7.88753 21.9242 7.6086 21.878 7.37785 21.7372C7.14709 21.5964 6.9834 21.3725 6.92274 21.1147C6.89256 20.987 6.88863 20.8548 6.91116 20.7257C6.9337 20.5965 6.98225 20.473 7.05406 20.362C7.12586 20.2511 7.2195 20.155 7.32961 20.0793C7.43973 20.0035 7.56416 19.9495 7.6958 19.9205C13.9778 18.5278 19.3662 19.1274 23.7132 21.705C23.8285 21.7733 23.9288 21.8631 24.0083 21.969C24.0878 22.075 24.145 22.1951 24.1766 22.3225C24.2082 22.4499 24.2137 22.5821 24.1926 22.7116C24.1715 22.841 24.1244 22.9652 24.0538 23.077M26.0724 18.7203C25.6999 19.3072 24.9084 19.4926 24.3037 19.1315C19.8711 16.488 13.1138 15.7223 7.87074 17.2666C7.54436 17.3624 7.19216 17.3287 6.89137 17.1728C6.59058 17.017 6.36577 16.7518 6.26624 16.4354C6.16786 16.1188 6.20285 15.7772 6.36355 15.4856C6.52425 15.194 6.79755 14.9761 7.12356 14.8796C13.1128 13.1164 20.5583 13.9705 25.6488 17.0055C26.2533 17.3666 26.4444 18.1347 26.0722 18.7205M26.2452 14.1838C20.9309 11.1206 12.1615 10.8389 7.08691 12.3334C6.27204 12.5733 5.41037 12.1269 5.16359 11.3363C5.04486 10.9565 5.08645 10.5465 5.2792 10.1964C5.47196 9.84631 5.8001 9.58483 6.1915 9.46941C12.0168 7.75358 21.7007 8.08502 27.8199 11.6097C27.9943 11.7098 28.1467 11.8423 28.2683 11.9996C28.3898 12.1569 28.4782 12.3359 28.5283 12.5264C28.5784 12.7169 28.5893 12.9151 28.5603 13.1097C28.5314 13.3043 28.4631 13.4914 28.3595 13.6604C27.9263 14.3714 26.9771 14.6059 26.2465 14.1836L26.2452 14.1838ZM44.8665 14.7708C42.019 14.1119 41.513 13.6497 41.513 12.6781C41.513 11.7601 42.4031 11.1425 43.7283 11.1425C45.0123 11.1425 46.2845 11.6117 47.6196 12.5773C47.659 12.6064 47.7101 12.6181 47.7594 12.6104C47.7841 12.6069 47.8079 12.5985 47.8292 12.5858C47.8506 12.5732 47.8691 12.5564 47.8836 12.5367L49.2738 10.6353C49.3013 10.5976 49.3129 10.5511 49.3064 10.5054C49.2998 10.4597 49.2755 10.4181 49.2384 10.3892C47.6493 9.15244 45.8611 8.55124 43.7697 8.55124C40.6957 8.55124 38.5473 10.3412 38.5473 12.9025C38.5473 15.649 40.4002 16.6216 43.6024 17.3722C46.3259 17.9811 46.7865 18.4911 46.7865 19.403C46.7865 20.4138 45.857 21.0423 44.3605 21.0423C42.6985 21.0423 41.3416 20.498 39.8253 19.2253C39.7875 19.1943 39.7389 19.1786 39.6895 19.1815C39.6649 19.1832 39.6409 19.1897 39.6189 19.2005C39.5969 19.2112 39.5774 19.2262 39.5613 19.2444L38.0018 21.0441C37.9704 21.0802 37.9548 21.1267 37.9581 21.1738C37.9614 21.2209 37.9835 21.2648 38.0196 21.2964C39.7839 22.8251 41.954 23.6314 44.2974 23.6314C47.6099 23.6314 49.7504 21.8753 49.7504 19.1566C49.7562 16.8624 48.3405 15.5919 44.8725 14.7734L44.8665 14.7708ZM57.2454 12.0462C55.8098 12.0462 54.6322 12.595 53.6594 13.7194V12.4539C53.6594 12.3539 53.5766 12.2726 53.4743 12.2726H50.9241C50.8748 12.2729 50.8277 12.2921 50.793 12.3261C50.7583 12.36 50.7389 12.4059 50.739 12.4537V26.5164C50.739 26.6157 50.8218 26.6978 50.9241 26.6978H53.4743C53.5236 26.6975 53.5708 26.6782 53.6055 26.6442C53.6402 26.6102 53.6596 26.5643 53.6594 26.5164V22.0778C54.6322 23.1344 55.8098 23.6522 57.2452 23.6522C59.9138 23.6522 62.6156 21.6596 62.6156 17.8499C62.6195 14.0394 59.9176 12.046 57.2473 12.046L57.2454 12.0462ZM59.6499 17.8499C59.6499 19.7889 58.4191 21.1436 56.6545 21.1436C54.9117 21.1436 53.5962 19.7278 53.5962 17.8499C53.5962 15.9718 54.9117 14.5562 56.6545 14.5562C58.3895 14.5562 59.6499 15.941 59.6499 17.8499ZM69.5375 12.046C66.1012 12.046 63.4092 14.6131 63.4092 17.8913C63.4092 21.1339 66.0834 23.6731 69.4961 23.6731C72.9442 23.6731 75.6441 21.1149 75.6441 17.8497C75.6441 14.5956 72.962 12.0466 69.5375 12.0466V12.046ZM69.5375 21.1625C67.71 21.1625 66.3316 19.7371 66.3316 17.8487C66.3316 15.9517 67.6628 14.5749 69.4961 14.5749C71.3354 14.5749 72.7217 15.9997 72.7217 17.8901C72.7217 19.7869 71.3826 21.1625 69.5375 21.1625ZM82.9815 12.2724H80.1754V9.4891C80.1754 9.38927 80.0926 9.30791 79.9903 9.30791H77.4403C77.3908 9.30802 77.3433 9.32713 77.3083 9.36107C77.2732 9.39502 77.2534 9.44104 77.2532 9.4891V12.2722H76.0284C75.9791 12.2725 75.932 12.2917 75.8973 12.3257C75.8626 12.3596 75.8432 12.4055 75.8433 12.4533V14.5793C75.8431 14.6272 75.8625 14.6731 75.8972 14.7071C75.9319 14.7411 75.9791 14.7604 76.0284 14.7607H77.2532V20.2626C77.2532 22.4846 78.3935 23.6119 80.6444 23.6119C81.558 23.6119 82.3161 23.4283 83.031 23.0348C83.0599 23.0194 83.084 22.9967 83.1007 22.9691C83.1173 22.9415 83.1259 22.9101 83.1256 22.8781V20.8527C83.1254 20.8221 83.1172 20.792 83.1017 20.7653C83.0862 20.7386 83.0639 20.7161 83.037 20.7001C83.0102 20.6833 82.9793 20.6737 82.9474 20.6724C82.9156 20.671 82.8839 20.6778 82.8557 20.6922C82.3654 20.9313 81.8909 21.0419 81.359 21.0419C80.5419 21.0419 80.1756 20.6808 80.1756 19.8745V14.7619H82.9818C83.0311 14.7616 83.0782 14.7423 83.1129 14.7083C83.1476 14.6743 83.167 14.6284 83.1668 14.5806V12.4545C83.1677 12.4308 83.1636 12.4072 83.1547 12.3851C83.1459 12.3629 83.1325 12.3428 83.1154 12.3258C83.0983 12.3089 83.0778 12.2955 83.0552 12.2864C83.0325 12.2774 83.0083 12.2728 82.9838 12.2732L82.9815 12.2724ZM92.757 12.2832V11.9413C92.757 10.9358 93.1547 10.4874 94.0447 10.4874C94.5768 10.4874 95.0039 10.5899 95.4826 10.7445C95.5106 10.7537 95.5405 10.7562 95.5697 10.7518C95.5989 10.7475 95.6266 10.7364 95.6505 10.7195C95.6745 10.7027 95.6939 10.6805 95.7071 10.6548C95.7204 10.6292 95.7272 10.6009 95.7269 10.5722L95.7266 8.48776C95.7272 8.44882 95.7146 8.41077 95.6908 8.3794C95.667 8.34804 95.6333 8.32508 95.5948 8.31401C95.0906 8.16818 94.4447 8.01873 93.4758 8.01873C91.1225 8.01873 89.8759 9.3053 89.8759 11.738V12.2615H88.6511C88.6016 12.2616 88.5541 12.2807 88.519 12.3147C88.484 12.3486 88.4642 12.3946 88.464 12.4427V14.5795C88.464 14.6794 88.5488 14.7609 88.6511 14.7609H89.8759V23.2451C89.8759 23.3463 89.9608 23.4267 90.0631 23.4267H92.6112C92.7156 23.4267 92.7984 23.3463 92.7984 23.2451V14.7613H95.1793L98.8263 23.2449C98.4127 24.1353 98.005 24.3129 97.4496 24.3129C97.0007 24.3129 96.5262 24.1831 96.0438 23.9252C95.9981 23.9028 95.9453 23.898 95.896 23.9118C95.8717 23.9198 95.8493 23.9325 95.8303 23.9493C95.8113 23.9661 95.7961 23.9865 95.7857 24.0092L94.9213 25.8492C94.9014 25.8909 94.8986 25.9385 94.9137 25.9822C94.9287 26.0259 94.9603 26.0623 95.002 26.0842C95.9039 26.558 96.7171 26.7605 97.7235 26.7605C99.606 26.7605 100.648 25.9084 101.564 23.6195L105.987 12.5307C105.998 12.5033 106.002 12.4735 105.999 12.4441C105.995 12.4147 105.984 12.3866 105.967 12.3623C105.95 12.3381 105.928 12.3182 105.901 12.3045C105.875 12.2908 105.845 12.2836 105.815 12.2836H103.161C103.122 12.2834 103.084 12.295 103.052 12.3168C103.02 12.3385 102.996 12.3695 102.983 12.4051L100.264 19.9396L97.2862 12.4001C97.2728 12.366 97.2491 12.3366 97.2182 12.3158C97.1873 12.295 97.1506 12.2838 97.1129 12.2836H92.757V12.2832ZM87.0895 12.2724H84.5393C84.4898 12.2726 84.4424 12.2917 84.4074 12.3256C84.3724 12.3596 84.3526 12.4055 84.3523 12.4535V23.2451C84.3523 23.3463 84.437 23.4267 84.5393 23.4267H87.0895C87.192 23.4267 87.2766 23.3463 87.2766 23.2451V12.4543C87.2767 12.4305 87.2719 12.4068 87.2626 12.3848C87.2532 12.3627 87.2394 12.3427 87.222 12.3258C87.2046 12.309 87.1839 12.2956 87.1612 12.2865C87.1384 12.2775 87.1141 12.2729 87.0895 12.273V12.2724ZM85.8291 7.35827C84.8187 7.35827 83.9997 8.15171 83.9997 9.13155C83.9997 9.36464 84.047 9.59545 84.1389 9.8108C84.2308 10.0262 84.3656 10.2218 84.5355 10.3866C84.7053 10.5515 84.907 10.6822 85.129 10.7714C85.3509 10.8606 85.5888 10.9065 85.8291 10.9064C86.8394 10.9064 87.6565 10.1122 87.6565 9.13155C87.6564 8.66131 87.4639 8.21037 87.1212 7.87784C86.7785 7.54531 86.3137 7.35843 85.8291 7.35827Z" fill="#1ED760"/>
</svg>
